<svg xmlns="http://www.w3.org/2000/svg" width="180" height="180" viewBox="0 0 180 180">
  <g fill="none" fill-rule="evenodd">
    <polygon fill="#FFE500" points="0 .391 99.398 .391 161.529 180.391 0 180.391"/>
    <path fill="#333332" fill-rule="nonzero" d="M99.3982111,89.0926718 C95.4094557,86.0641724 93.5258768,89.0926718 91.0144383,89.0926718 C88.5029997,89.0926718 86.8779512,85.3993798 85.2529028,86.3227028 C82.1136046,87.9108183 86.508622,93.7092868 88.4291339,94.7064756 C89.8424913,95.5089699 91.2972085,96.2363285 92.7872184,96.8855179 C95.0239484,97.9164265 96.4632281,100.14731 96.4805104,102.61012 C96.5963802,103.529808 96.5963802,104.460402 96.4805104,105.380089 C95.3355899,110.255235 86.7302196,114.687185 81.7073425,111.32629 C79.0146086,109.708417 77.1352081,107.023559 76.5367337,103.939706 C75.2071486,97.5503104 70.5536007,92.8598296 69.1501497,86.5812332 C68.2268267,82.8879412 67.5620341,78.7514542 66.5648453,74.9473635 C65.5676565,71.1432727 64.5335347,66.9329199 63.6840776,63.2396279 C62.7505298,59.383155 61.5913026,55.5848362 60.2123831,51.8642886 C55.4480364,39.6394921 53.34286,40.5258822 53.34286,40.5258822 C53.34286,40.5258822 55.0417743,43.9237108 61.2834378,73.76551 C62.3235811,80.177615 63.7168401,86.5274234 65.4568577,92.7859638 C66.0477844,94.3371464 67.0819062,97.6611092 67.7466987,99.138426 C69.7410764,103.422645 75.1332827,109.922839 75.3179473,115.795173 C75.5026119,119.193001 75.908874,121.999903 75.9827399,124.548275 C76.1110379,126.29633 76.4078795,128.027906 76.86913,129.718884 C78.1617822,133.412176 88.4660668,144.824448 99.3982111,144.824448 L99.3982111,135.923614 C91.776862,135.756786 84.3601993,133.425469 78.0140505,129.201823 C78.1564559,127.059782 78.5913762,124.947312 79.3067027,122.923226 C80.5375765,118.975189 84.0168987,116.15097 88.1336705,115.75824 C91.852584,115.82768 95.559014,116.210678 99.2135465,116.90316 L99.2135465,89.0926718 L99.3982111,89.0926718 Z M52.1610066,57.182629 C51.7547444,63.7197558 41.5612586,72.6944554 38.3850275,78.4190579 C36.5817907,81.7203936 35.2279073,85.2479431 34.3593392,88.9080072 C33.2582474,94.7541647 34.0608193,100.799344 36.6491802,106.155681 C40.0100759,114.207057 36.2059852,117.235557 38.8282225,115.536642 C42.0783194,112.877472 41.5981915,106.709675 41.339661,102.868651 C41.0074814,99.4049023 41.0074814,95.917316 41.339661,92.4535675 C42.8078022,85.312206 45.8483886,78.5875897 50.2404947,72.7683212 C53.2505575,68.1474786 53.9592745,62.3959674 52.1610066,57.182629 M54.2292501,75.649089 C54.2292501,75.649089 55.3003048,80.8196977 50.5359581,94.1155489 C38.4958262,129.017158 61.6158341,132.304188 68.0421621,140.503296 C68.0421621,140.503296 70.5905336,136.810004 60.1385173,125.730128 C56.4452253,121.593641 52.7519333,112.434277 55.8912315,99.3230906 C60.2123831,80.3765027 54.0445855,75.7229548 54.0445855,75.7229548 M31.4416385,52.8984103 C30.8740347,51.1083773 30.6118401,49.2355589 30.6660472,47.3584723 C31.4047056,39.1593641 38.9020883,35.8354013 40.7487343,34.616615 C42.4593349,33.5033039 43.7871245,31.8919087 44.5528251,30 C46.5589468,35.0036575 44.6726094,40.7250279 40.0839418,43.5543816 C36.359584,45.7670344 33.3574004,49.0129851 31.4416385,52.8984103 M50.3143606,44.9578325 C50.7206227,45.8072897 54.0076526,50.3131059 41.1549964,60.7281893 C28.3023403,71.1432727 32.4388274,78.6037225 32.4388274,78.6037225 C32.4388274,78.6037225 18.9213787,71.2171386 34.5070709,58.1798179 C50.0927631,45.1424971 46.879599,42.6679915 46.879599,42.6679915 C48.3780167,42.7144807 49.7154261,43.6204677 50.3143606,44.9947655 M66.7864428,48.9835208 C68.9654851,49.2789842 70.4797348,56.0746414 75.465679,57.5519582 C79.158971,58.6230129 83.1477263,58.0320862 84.0341164,60.2849943 C83.387359,60.8172796 83.1601821,61.7073389 83.4727257,62.4844743 C83.7852692,63.2616096 84.5654323,63.746543 85.4006344,63.6828229 C86.8410183,59.5463359 87.5427438,44.3299729 66.8233758,48.9835208 L66.7864428,48.9835208 Z M73.6559659,52.1597519 C73.6559659,51.679624 74.099161,52.1597519 74.6531548,51.7165569 C75.2325109,50.9649497 75.9784364,50.3580951 76.832197,49.9437767 C77.5762017,49.7011844 78.3780334,49.7011844 79.1220381,49.9437767 C79.5652331,49.9437767 79.1220381,51.1625631 79.1220381,51.4210935 C79.1220381,51.679624 76.389002,51.0886972 76.389002,52.602947 C76.389002,55.0774526 79.7498977,52.602947 81.4857449,52.602947 C82.3352021,58.6599458 72.3263808,56.9979644 73.8036976,52.0120202 L73.8036976,52.0120202 L73.6559659,52.1597519 Z"/>
  </g>
</svg>
